<svg width="229" height="232" viewBox="0 0 229 232" fill="none" xmlns="http://www.w3.org/2000/svg">
<g clip-path="url(#clip0)">
<path d="M41.2237 147.545C43.2913 146.656 43.1099 144.584 42.9106 142.029C42.7696 140.252 42.5648 138.818 43.3328 138.491C43.9034 138.248 44.4814 138.597 45.1432 140.145C46.0414 142.253 45.8781 143.276 44.266 143.974L45.2887 146.374C47.9595 145.223 48.9137 143.134 47.2766 139.319C45.8759 136.064 44.0808 135.316 42.2712 136.099C40.0606 137.042 40.5052 140.399 40.6796 142.635C40.8416 144.573 40.7607 144.91 40.2834 145.113C39.7455 145.336 39.2162 144.771 38.7514 143.69C38.189 142.389 38.1304 141.233 39.4192 140.678L38.3902 138.268C36.2837 139.164 35.2614 141.337 36.6558 144.58C37.828 147.314 39.4359 148.316 41.2237 147.545Z" fill="white"/>
<path d="M39.4271 135.87C42.6932 135.073 44.6457 132.277 43.7778 128.714C43.0149 125.585 40.7949 123.949 37.9348 124.294L38.5609 126.835C40.0964 126.733 41.1791 127.704 41.5526 129.23C42.031 131.188 41.1304 132.768 38.8182 133.334C36.5169 133.893 34.9776 132.91 34.5055 130.962C34.132 129.436 34.624 128.078 36.0324 127.454L35.4063 124.913C32.727 125.923 31.5208 128.404 32.2946 131.527C33.1561 135.079 36.1782 136.672 39.4271 135.87Z" fill="white"/>
<path d="M42.0005 119.582L37.9609 119.868L37.6384 115.366L41.6781 115.08L41.4925 112.473L37.8282 112.732C36.9374 112.796 36.4742 113.325 36.5392 114.216L36.6689 115.897L36.0132 115.942C35.7558 114.567 35.1254 113.073 33.2317 113.208C30.6544 113.39 30.1988 115.816 30.3928 118.563L30.7118 123.008L42.1969 122.182L42.0005 119.582ZM35.5475 118.199L35.681 120.037L32.8016 120.249L32.668 118.41C32.5577 116.863 32.483 115.905 33.939 115.79C35.3561 115.683 35.4372 116.652 35.5475 118.199Z" fill="white"/>
<path d="M35.6631 111.268C39.0123 111.569 41.7633 109.603 42.0946 105.958C42.4214 102.33 40.0681 99.8864 36.7188 99.5852C33.3804 99.2777 30.6357 101.254 30.309 104.882C29.9886 108.521 32.3418 110.965 35.6631 111.268ZM32.5892 105.09C32.7906 102.927 34.3033 101.981 36.4931 102.183C38.7 102.389 40.0159 103.588 39.8254 105.744C39.624 107.907 38.1175 108.864 35.8997 108.664C33.71 108.462 32.3986 107.246 32.5892 105.09Z" fill="white"/>
<path d="M43.2921 97.7349L44.7695 91.077L42.5531 90.528L41.3645 96.0034L32.2417 93.7385L31.6184 96.2752L41.6209 98.7579C42.4959 98.9928 43.0924 98.6194 43.2921 97.7349Z" fill="white"/>
<path d="M45.7518 88.941L48.0716 82.5369L45.9396 81.707L44.0584 86.9873L35.3164 83.5737L34.3716 86.0058L43.9612 89.7572C44.8024 90.0842 45.4428 89.787 45.7518 88.941Z" fill="white"/>
<path d="M44.5272 70.0145L52.2754 75.0467L53.6902 72.8512L45.9592 67.8236L47.9972 64.6733L46.0766 63.4311L40.5641 71.9399L42.4847 73.182L44.5272 70.0145Z" fill="white"/>
<path d="M59.0705 57.2624C56.578 55.0298 53.1816 54.9735 50.763 57.6905C48.3335 60.4138 48.7564 63.7832 51.2597 66.0096C53.7693 68.2468 57.1548 68.3094 59.5952 65.5798C62.003 62.8691 61.5692 59.5059 59.0705 57.2624ZM57.8773 64.061C56.4333 65.6784 54.6473 65.5485 52.9935 64.0652C51.346 62.5929 51.0259 60.833 52.47 59.2156C53.9141 57.5982 55.6954 57.7453 57.3366 59.2067C58.9796 60.6963 59.3214 62.4436 57.8773 64.061Z" fill="white"/>
<path d="M70.904 52.6215C69.03 53.9212 67.9865 53.9722 66.9762 52.5237L64.832 54.0084C66.4903 56.4033 68.7267 56.9117 72.1347 54.5522C75.0459 52.5377 75.409 50.6301 74.281 49.0029C72.9131 47.0353 69.7263 48.1205 67.5639 48.745C65.7002 49.284 65.3513 49.2823 65.061 48.8549C64.7222 48.3684 65.1849 47.7384 66.146 47.0675C67.3182 46.2601 68.426 45.9688 69.2214 47.1204L71.3656 45.6358C70.0651 43.7599 67.7395 43.1724 64.8454 45.1916C62.3985 46.8801 61.7403 48.6533 62.862 50.2696C64.1499 52.1237 66.1458 51.5374 68.6069 50.8276C70.3103 50.3375 71.682 49.8504 72.1511 50.5373C72.518 51.0221 72.2921 51.6605 70.904 52.6215Z" fill="white"/>
<path d="M83.2564 45.5057L78.2476 48.0057L77.2046 45.9231L81.4815 43.7876L80.4574 41.7376L76.1806 43.8731L75.1439 41.8013L80.1528 39.3013L79.1287 37.2513L71.7934 40.9203L76.9389 51.2139L84.2805 47.5557L83.2564 45.5057Z" fill="white"/>
<path d="M86.3126 41.9114L90.8384 40.3578L90.1004 38.2007L85.5683 39.7434L84.8224 37.5473L90.1258 35.7334L89.3707 33.5716L81.6084 36.2247L85.3392 47.1318L93.1125 44.4725L92.3682 42.3045L87.0756 44.1121L86.3126 41.9114Z" fill="white"/>
<path d="M100.291 33.5509L99.666 31.9668L100.315 31.9112L103.102 42.565L108.14 42.1237L109.036 31.1432L109.685 31.0876L109.33 32.7583L110.144 41.9535L112.741 41.731L111.739 30.2501L106.617 30.6964L105.89 41.6669L105.24 41.7225L102.615 31.0478L97.4936 31.4941L98.5072 42.9687L101.105 42.7462L100.291 33.5509Z" fill="white"/>
<path d="M120.233 42.6017L120.612 38.9142L125.678 31.5918L122.887 31.3024L119.947 35.8294L119.788 37.2858L119.143 37.2229L119.296 35.7557L117.349 30.7264L114.575 30.4416L118.018 38.6411L117.628 42.3349L120.233 42.6017Z" fill="white"/>
<path d="M135.901 46.3848L141.278 36.8371L141.877 37.0716L139.268 47.7208L144.306 49.7171L150.383 39.7504L148.031 38.8155L142.331 48.2305L141.726 47.9851L144.399 37.3715L139.239 35.3149L133.92 44.8873L133.31 44.6591L135.613 33.8817L133.261 32.9468L130.856 44.3776L135.901 46.3848Z" fill="white"/>
<path d="M148.985 45.8399C147.123 48.642 147.546 52.0114 150.589 54.0423C153.625 56.0623 156.891 55.1637 158.753 52.3617C160.61 49.5768 160.187 46.2074 157.151 44.1874C154.108 42.1565 150.842 43.055 148.985 45.8399ZM155.881 46.0815C157.692 47.2851 157.794 49.0693 156.577 50.9039C155.338 52.7512 153.663 53.3409 151.852 52.1373C150.041 50.9336 149.921 49.1449 151.154 47.2868C152.371 45.4521 154.07 44.8779 155.881 46.0815Z" fill="white"/>
<path d="M158.233 59.6722L161.015 56.7308L164.297 59.8284L161.515 62.7697L163.418 64.559L165.935 61.8868C166.549 61.2422 166.534 60.5393 165.879 59.931L164.661 58.7764L165.11 58.2992C166.23 59.1332 167.705 59.8051 169.001 58.433C170.773 56.554 169.476 54.4583 167.477 52.5791L164.231 49.5188L156.336 57.8938L158.233 59.6722ZM164.569 52.9665L165.912 54.2375C167.034 55.3021 167.738 55.9694 166.739 57.0255C165.75 58.0753 165.045 57.408 163.923 56.3434L162.581 55.0724L164.569 52.9665Z" fill="white"/>
<path d="M165.837 67.5162L169.064 65.0437L168.758 71.3446L171.08 74.3868L171.431 65.3754L180.23 67.4062L177.908 64.364L171.732 63.0098L174.987 60.5356L173.393 58.4521L164.243 65.4326L165.837 67.5162Z" fill="white"/>
<path d="M187.405 84.9598C185.337 85.8487 185.519 87.9209 185.718 90.4761C185.859 92.2522 186.064 93.6868 185.296 94.0141C184.725 94.2565 184.147 93.9081 183.486 92.3601C182.587 90.2519 182.751 89.2288 184.363 88.5303L183.334 86.1203C180.663 87.2704 179.709 89.3596 181.346 93.1746C182.747 96.4293 184.542 97.1779 186.351 96.3944C188.562 95.4519 188.117 92.095 187.943 89.8592C187.781 87.921 187.862 87.584 188.339 87.3811C188.877 87.1576 189.406 87.7227 189.871 88.804C190.433 90.1047 190.492 91.2609 189.203 91.8163L190.232 94.2263C192.339 93.3294 193.361 91.1573 191.967 87.9134C190.812 85.1844 189.21 84.1934 187.405 84.9598Z" fill="white"/>
<path d="M189.213 96.6285C185.947 97.4257 183.994 100.222 184.862 103.784C185.625 106.914 187.845 108.549 190.705 108.204L190.079 105.663C188.544 105.766 187.461 104.795 187.087 103.269C186.609 101.31 187.509 99.7307 189.822 99.1649C192.123 98.6054 193.662 99.5888 194.134 101.537C194.508 103.063 194.016 104.42 192.608 105.045L193.234 107.586C195.913 106.576 197.119 104.095 196.345 100.971C195.484 97.4197 192.457 95.8438 189.213 96.6285Z" fill="white"/>
<path d="M186.638 112.918L190.677 112.632L191 117.133L186.96 117.419L187.146 120.026L190.81 119.768C191.701 119.703 192.164 119.175 192.099 118.283L191.969 116.602L192.625 116.558C192.882 117.933 193.513 119.426 195.406 119.291C197.984 119.109 198.439 116.684 198.245 113.937L197.926 109.491L186.441 110.317L186.638 112.918ZM193.097 114.311L192.963 112.473L195.843 112.262L195.976 114.1C196.087 115.647 196.161 116.606 194.705 116.721C193.282 116.817 193.207 115.859 193.097 114.311Z" fill="white"/>
<path d="M192.976 121.23C189.626 120.929 186.875 122.894 186.544 126.54C186.217 130.168 188.571 132.611 191.92 132.912C195.258 133.22 198.003 131.243 198.33 127.615C198.656 123.987 196.303 121.544 192.976 121.23ZM196.056 127.419C195.854 129.581 194.342 130.527 192.152 130.326C189.945 130.12 188.629 128.92 188.82 126.764C189.021 124.602 190.527 123.645 192.745 123.845C194.929 124.035 196.24 125.252 196.056 127.419Z" fill="white"/>
<path d="M185.35 134.763L183.872 141.421L186.089 141.97L187.277 136.495L196.4 138.76L197.023 136.223L187.021 133.74C186.152 133.516 185.545 133.896 185.35 134.763Z" fill="white"/>
<path d="M182.888 143.557L180.568 149.962L182.7 150.791L184.582 145.511L193.324 148.925L194.268 146.493L184.679 142.741C183.838 142.414 183.197 142.711 182.888 143.557Z" fill="white"/>
<path d="M184.104 162.49L176.366 157.451L174.941 159.653L182.683 164.674L180.645 167.825L182.554 169.073L188.084 160.569L186.157 159.316L184.104 162.49Z" fill="white"/>
<path d="M169.057 166.924C166.638 169.641 167.072 173.004 169.571 175.248C172.063 177.48 175.46 177.537 177.878 174.82C180.308 172.096 179.885 168.727 177.382 166.5C174.877 164.246 171.487 164.201 169.057 166.924ZM176.171 173.294C174.727 174.912 172.946 174.765 171.305 173.303C169.651 171.82 169.309 170.073 170.753 168.455C172.197 166.838 173.983 166.968 175.637 168.451C177.289 169.906 177.615 171.677 176.171 173.294Z" fill="white"/>
<path d="M157.731 179.877C159.605 178.578 160.649 178.527 161.659 179.975L163.803 178.49C162.145 176.095 159.909 175.587 156.501 177.947C153.59 179.961 153.226 181.869 154.354 183.496C155.722 185.464 158.909 184.378 161.072 183.754C162.935 183.215 163.284 183.217 163.574 183.644C163.913 184.13 163.451 184.76 162.489 185.431C161.317 186.239 160.209 186.53 159.414 185.378L157.27 186.863C158.57 188.739 160.896 189.326 163.79 187.307C166.237 185.619 166.895 183.846 165.773 182.229C164.486 180.375 162.49 180.961 160.029 181.671C158.325 182.161 156.953 182.648 156.484 181.961C156.117 181.477 156.343 180.838 157.731 179.877Z" fill="white"/>
<path d="M145.382 186.993L150.39 184.493L151.433 186.575L147.163 188.722L148.181 190.761L152.457 188.625L153.494 190.697L148.491 193.208L149.509 195.247L156.844 191.578L151.699 181.284L144.364 184.954L145.382 186.993Z" fill="white"/>
<path d="M136.268 190.193L141.561 188.386L142.313 190.593L137.798 192.14L138.542 194.308L143.057 192.761L143.814 194.951L138.511 196.764L139.255 198.932L147.028 196.273L143.286 185.372L135.53 188.036L136.268 190.193Z" fill="white"/>
<path d="M128.335 198.953L128.977 200.542L128.328 200.598L125.534 189.933L120.497 190.374L119.601 201.355L118.952 201.41L119.296 199.746L118.493 190.545L115.884 190.773L116.898 202.248L122.019 201.802L122.747 190.831L123.396 190.776L126.021 201.45L131.143 201.004L130.136 189.54L127.538 189.763L128.335 198.953Z" fill="white"/>
<path d="M108.403 189.897L108.023 193.585L102.963 200.918L105.737 201.203L108.694 196.68L108.837 195.219L109.482 195.282L109.339 196.743L111.275 201.779L114.056 202.075L110.617 193.858L111.007 190.164L108.403 189.897Z" fill="white"/>
<path d="M92.742 186.124L87.3654 195.672L86.7598 195.427L89.369 184.777L84.3306 182.781L78.2597 192.759L80.6119 193.694L86.3054 184.268L86.911 184.513L84.2377 195.127L89.3979 197.183L94.7168 187.611L95.3224 187.856L93.0237 198.616L95.3822 199.562L97.7804 188.121L92.742 186.124Z" fill="white"/>
<path d="M79.653 186.658C81.5151 183.856 81.0922 180.486 78.0492 178.455C75.0126 176.435 71.747 177.334 69.8849 180.136C68.0274 182.921 68.4503 186.29 71.487 188.31C74.5362 190.352 77.8018 189.454 79.653 186.658ZM72.7568 186.416C70.9455 185.213 70.8434 183.428 72.0605 181.594C73.2994 179.746 74.9743 179.157 76.7857 180.36C78.5971 181.564 78.7163 183.353 77.4837 185.211C76.2557 187.052 74.5573 187.626 72.7568 186.416Z" fill="white"/>
<path d="M70.4063 172.826L67.6305 175.778L64.3487 172.68L67.1308 169.739L65.2278 167.95L62.7108 170.622C62.097 171.267 62.1114 171.97 62.767 172.578L63.9846 173.732L63.5352 174.21C62.4157 173.376 60.9403 172.704 59.6446 174.076C57.8731 175.955 59.17 178.05 61.1684 179.93L64.4142 182.99L72.3093 174.615L70.4063 172.826ZM64.0766 179.542L62.7338 178.271C61.6117 177.207 60.9074 176.539 61.9071 175.483C62.896 174.434 63.6002 175.101 64.7224 176.165L66.0651 177.436L64.0766 179.542Z" fill="white"/>
<path d="M62.8034 164.982L59.5766 167.454L59.8826 161.153L57.5607 158.111L57.2102 167.123L48.4173 165.103L50.7329 168.134L56.8977 169.495L53.66 171.973L55.2481 174.046L64.3978 167.065L62.8034 164.982Z" fill="white"/>
<path d="M49.02 156.454C49.5245 156.162 49.6971 155.517 49.4056 155.012C49.114 154.507 48.4687 154.334 47.9642 154.625C47.4598 154.916 47.2871 155.562 47.5786 156.067C47.8702 156.572 48.5155 156.745 49.02 156.454Z" fill="white"/>
<path d="M179.352 78.2737C179.641 78.7743 180.293 78.9494 180.793 78.6606C181.294 78.3717 181.468 77.7196 181.179 77.2189C180.89 76.7182 180.238 76.5432 179.738 76.832C179.237 77.1208 179.063 77.773 179.352 78.2737Z" fill="white"/>
</g>
<defs>
<clipPath id="clip0">
<rect width="163" height="173" fill="white" transform="translate(0.488281 82.0879) rotate(-30)"/>
</clipPath>
</defs>
</svg>
