<svg width="42" height="41" viewBox="0 0 42 41" fill="none" xmlns="http://www.w3.org/2000/svg">
<path d="M20.9985 0.885742C9.92099 0.885742 0.941406 9.86532 0.941406 20.9429C0.941406 32.0204 9.92099 41 20.9985 41C32.0761 41 41.0557 32.0204 41.0557 20.9429C41.0557 9.86532 32.0761 0.885742 20.9985 0.885742ZM20.9985 3.79202C25.368 3.79202 29.3564 5.42668 32.385 8.11634C30.1596 11.0517 26.779 13.0063 23.3914 14.329C21.4736 10.8364 19.3244 7.47605 16.958 4.27038C18.2815 3.95138 19.6372 3.79079 20.9985 3.79202ZM13.7018 5.41665C15.9381 8.76218 18.1043 11.864 20.0829 15.375C15.0787 16.6717 9.42357 17.4499 4.19969 17.463C5.30083 12.1197 8.89005 7.68211 13.7018 5.41665ZM34.2874 10.1C36.7657 13.1286 38.1291 16.9163 38.1494 20.8296C34.1821 20.0473 30.2369 19.8427 26.2194 20.2479C25.7681 19.1217 25.2206 18.0516 24.6961 16.8984C28.1589 15.5014 31.8615 13.1116 34.2874 10.1ZM21.4759 18.0286C21.9051 18.9412 22.4025 19.9099 22.8699 20.8998C17.284 23.3628 11.342 26.6542 8.25825 32.4246C5.29782 29.1485 3.72012 24.8539 3.85571 20.4405C9.83775 20.4124 15.7095 19.6642 21.4759 18.0286ZM30.5397 22.7049C33.0356 22.7054 35.5212 23.0256 37.9358 23.6576C37.5635 25.9805 36.7173 28.2019 35.4497 30.1837C34.1822 32.1655 32.5204 33.8653 30.5678 35.1774C29.6472 30.9905 28.7697 26.9841 27.2183 22.9446C28.3178 22.7844 29.4276 22.7039 30.5387 22.7039L30.5397 22.7049ZM38.0251 23.0158C38.013 23.1141 38.002 23.2103 37.988 23.3066C38.002 23.2093 38.014 23.1131 38.0251 23.0158ZM24.0452 23.7278C25.6257 27.8125 26.8663 32.3353 27.6986 36.7369C25.5798 37.6359 23.3012 38.0978 20.9995 38.0947C17.1865 38.1002 13.4814 36.8293 10.4746 34.4845C13.5804 29.4461 18.3911 25.6332 24.0442 23.7288L24.0452 23.7278Z" fill="white"/>
</svg>
