<svg width="42" height="41" viewBox="0 0 42 41" fill="none" xmlns="http://www.w3.org/2000/svg">
<path d="M20.9996 0C9.96767 0 0.941406 9.02627 0.941406 20.0581C0.941406 31.088 9.96767 40.1143 20.9996 40.1143C32.0294 40.1143 41.0557 31.088 41.0557 20.0581C41.0557 9.02627 32.1298 0 20.9996 0ZM30.2246 28.982C29.8251 29.5823 29.1224 29.7851 28.5181 29.3856C23.8022 26.4745 17.8857 25.8722 10.8651 27.4763C10.1664 27.6811 9.56414 27.1792 9.36338 26.5749C9.16061 25.8722 9.66251 25.2739 10.2668 25.0712C17.8857 23.3647 24.5069 24.0694 29.7207 27.2796C30.4233 27.5787 30.5237 28.3797 30.2246 28.982ZM32.6337 23.4671C32.1298 24.1677 31.2284 24.4689 30.5237 23.967C25.1092 20.6624 16.8879 19.6546 10.57 21.6622C9.77093 21.865 8.86348 21.4615 8.66473 20.6624C8.46196 19.8554 8.86549 18.9519 9.66653 18.7512C16.9863 16.5468 26.0146 17.651 32.2302 21.4635C32.8325 21.7626 33.1336 22.7644 32.6337 23.4671ZM32.8325 17.8478C26.4141 14.0393 15.6834 13.6378 9.56414 15.547C9.09879 15.6811 8.59966 15.6308 8.17045 15.4064C7.74125 15.1821 7.41497 14.8011 7.25939 14.3424C7.12292 13.8765 7.17186 13.3759 7.39598 12.9452C7.62011 12.5146 8.00206 12.1872 8.46196 12.0317C15.583 9.92568 27.3175 10.3252 34.7397 14.744C35.6411 15.2439 35.9423 16.4484 35.4404 17.3499C34.9385 18.0525 33.7359 18.3497 32.8325 17.8478Z" fill="white"/>
</svg>
