<svg width="41" height="41" viewBox="0 0 41 41" fill="none" xmlns="http://www.w3.org/2000/svg">
<path d="M20.8853 0.885742C9.80788 0.885742 0.828125 9.86549 0.828125 20.9429C0.828125 32.0203 9.80788 41 20.8853 41C31.9627 41 40.9424 32.0203 40.9424 20.9429C40.9424 9.86549 31.9627 0.885742 20.8853 0.885742ZM15.9754 29.2562H11.9139V16.1856H15.9754V29.2562ZM13.9196 14.581C12.6368 14.581 11.8073 13.6722 11.8073 12.5481C11.8073 11.4011 12.6618 10.5194 13.9718 10.5194C15.2818 10.5194 16.0841 11.4011 16.1092 12.5481C16.1092 13.6722 15.2818 14.581 13.9196 14.581ZM30.8094 29.2562H26.7478V22.0126C26.7478 20.3265 26.1586 19.1816 24.6899 19.1816C23.5679 19.1816 22.9014 19.9567 22.6068 20.7026C22.4982 20.968 22.471 21.344 22.471 21.718V29.2541H18.4074V20.3537C18.4074 18.722 18.3551 17.3577 18.3008 16.1835H21.8296L22.0156 17.9991H22.0971C22.6319 17.1467 23.9419 15.8889 26.1336 15.8889C28.8057 15.8889 30.8094 17.6794 30.8094 21.5279V29.2562Z" fill="white"/>
</svg>
