<svg width="41" height="41" viewBox="0 0 41 41" fill="none" xmlns="http://www.w3.org/2000/svg">
<path d="M20.1157 0C9.03954 0 0.0585938 8.98094 0.0585938 20.0571C0.0585938 31.1333 9.03954 40.1143 20.1157 40.1143C31.1919 40.1143 40.1729 31.1333 40.1729 20.0571C40.1729 8.98094 31.1919 0 20.1157 0ZM31.577 11.3583L29.7503 13.1088C29.5892 13.2297 29.513 13.4266 29.5444 13.6192V26.4996C29.513 26.6966 29.5892 26.8936 29.7503 27.01L31.5411 28.7605V29.15H22.5512V28.7784L24.4003 26.9831C24.5838 26.7996 24.5838 26.7458 24.5838 26.4727V16.0502L19.4352 29.1052H18.7413L12.751 16.0502V24.8028C12.6973 25.1699 12.8271 25.5415 13.0868 25.8057L15.4954 28.7202V29.1097H8.65451V28.7202L11.0632 25.8057C11.1901 25.6746 11.2845 25.5156 11.3389 25.3414C11.3934 25.1673 11.4062 24.9828 11.3766 24.8028V14.6847C11.4079 14.4026 11.3004 14.1295 11.0855 13.937L8.94552 11.3583V10.9688H15.5939L20.7246 22.2285L25.2419 10.9777H31.577V11.3583Z" fill="white"/>
</svg>
