<svg width="41" height="41" viewBox="0 0 41 41" fill="none" xmlns="http://www.w3.org/2000/svg">
<path d="M16.0103 19.076C16.3998 18.7939 16.5878 18.3283 16.5878 17.6881C16.6013 17.3836 16.5386 17.0837 16.4043 16.8106C16.2834 16.5912 16.1043 16.4076 15.8849 16.2778C15.6575 16.1399 15.4048 16.0486 15.1417 16.0092C14.8552 15.9555 14.5642 15.9286 14.2777 15.9331H11.1303V19.5013H14.5373C15.1238 19.5058 15.6208 19.3625 16.0103 19.076ZM16.5386 22.2994C16.0998 21.9636 15.5133 21.798 14.7836 21.798H11.1214V26.0064H14.7119C15.0477 26.0064 15.3566 25.9751 15.6566 25.9124C15.9404 25.8569 16.2109 25.7475 16.4535 25.5901C16.6818 25.4423 16.8654 25.2408 17.0042 24.9812C17.1385 24.7215 17.2057 24.3902 17.2057 23.9917C17.2057 23.1993 16.9818 22.6397 16.5386 22.2994ZM20.1157 0.885742C9.03954 0.885742 0.0585938 9.86669 0.0585938 20.9429C0.0585938 32.0191 9.03954 41 20.1157 41C31.1919 41 40.1729 32.0191 40.1729 20.9429C40.1729 9.86669 31.1919 0.885742 20.1157 0.885742ZM23.9884 13.7304H30.1846V15.2391H23.9884V13.7304ZM20.1157 26.1721C19.8259 26.7222 19.4121 27.1974 18.9069 27.56C18.3786 27.9271 17.7922 28.1957 17.1698 28.3524C16.5188 28.5269 15.8471 28.6127 15.1731 28.6076H7.7591V13.3364H14.9671C15.6969 13.3364 16.3595 13.4035 16.9639 13.5289C17.5638 13.6543 18.0742 13.8692 18.504 14.1602C18.9293 14.4512 19.2651 14.8407 19.5024 15.3242C19.7352 15.8032 19.8561 16.4032 19.8561 17.115C19.8561 17.8851 19.6815 18.5208 19.3323 19.0357C18.9786 19.5505 18.4682 19.9669 17.7742 20.2937C18.7189 20.5623 19.4128 21.0414 19.8695 21.7129C20.3351 22.3934 20.5634 23.2083 20.5634 24.1664C20.5634 24.9454 20.4157 25.6124 20.1157 26.1721ZM32.5977 23.8082H24.6107C24.6107 24.6767 24.9106 25.5095 25.3628 25.9572C25.8195 26.4004 26.4731 26.6243 27.3282 26.6243C27.9461 26.6243 28.4699 26.4676 28.9176 26.1586C29.3608 25.8497 29.6294 25.5229 29.7279 25.1826H32.4052C31.9754 26.5123 31.3218 27.4615 30.4353 28.0345C29.5578 28.6076 28.4833 28.8941 27.2342 28.8941C26.3612 28.8941 25.5777 28.7508 24.8748 28.4777C24.1988 28.2136 23.5899 27.8107 23.0885 27.2913C22.5941 26.758 22.2119 26.1307 21.9648 25.4468C21.6917 24.6902 21.5573 23.8933 21.5663 23.0919C21.5663 22.2636 21.7051 21.4936 21.9737 20.7772C22.4886 19.3849 23.5586 18.2701 24.9241 17.6926C25.6538 17.3881 26.4373 17.2359 27.2298 17.2448C28.1699 17.2448 28.9848 17.4239 29.6921 17.791C30.3731 18.1416 30.9644 18.644 31.4203 19.2595C31.8724 19.8729 32.1903 20.5713 32.3918 21.3592C32.5843 22.1338 32.6515 22.9486 32.5977 23.8082ZM27.1357 19.5281C26.6522 19.5281 26.2448 19.6132 25.9314 19.7789C25.618 19.9445 25.3584 20.1504 25.1614 20.3877C24.9738 20.6168 24.8351 20.882 24.754 21.1667C24.6823 21.404 24.6331 21.6458 24.6152 21.892H29.5623C29.4907 21.1175 29.222 20.5444 28.8639 20.1415C28.4878 19.743 27.8834 19.5281 27.1357 19.5281Z" fill="white"/>
</svg>
