<svg width="15" height="15" viewBox="0 0 15 15" fill="none" xmlns="http://www.w3.org/2000/svg">
<path fill-rule="evenodd" clip-rule="evenodd" d="M15 0.751226V0.750862C15 0.55198 14.921 0.361244 14.7804 0.220613C14.7521 0.192388 14.7219 0.166645 14.69 0.143526C14.6424 0.108904 14.5908 0.0799218 14.5362 0.0572632C14.4451 0.0194593 14.3474 0 14.2488 0C14.236 0 14.2232 0.000326328 14.2105 0.000976562H6.75126C6.55238 0.000976562 6.36164 0.0799823 6.22101 0.220613C6.08038 0.361244 6.00137 0.55198 6.00137 0.750862C6.00137 0.949744 6.08038 1.14048 6.22101 1.28111C6.36164 1.42174 6.55238 1.50075 6.75126 1.50075H12.4374L0.219914 13.7182C0.0791054 13.8591 0 14.05 0 14.2492C0 14.4483 0.0791054 14.6393 0.219914 14.7801C0.360722 14.9209 0.5517 15 0.750833 15C0.949966 15 1.14094 14.9209 1.28175 14.7801L13.5002 2.56161V8.24972C13.5002 8.4486 13.5792 8.63934 13.7199 8.77997C13.8605 8.9206 14.0512 8.9996 14.2501 8.9996C14.449 8.9996 14.6397 8.9206 14.7804 8.77997C14.921 8.63934 15 8.4486 15 8.24972V0.751226Z" fill="white"/>
</svg>
