<svg width="41" height="41" viewBox="0 0 41 41" fill="none" xmlns="http://www.w3.org/2000/svg">
<path d="M20.8853 0C9.80907 0 0.828125 8.98094 0.828125 20.0571C0.828125 31.1333 9.80907 40.1143 20.8853 40.1143C31.9615 40.1143 40.9424 31.1333 40.9424 20.0571C40.9424 8.98094 31.9615 0 20.8853 0ZM30.5243 15.119C30.5378 15.3294 30.5378 15.5488 30.5378 15.7637C30.5378 22.336 25.5324 29.9066 16.3858 29.9066C13.5653 29.9066 10.9507 29.0873 8.74801 27.6771C9.15094 27.7218 9.53597 27.7397 9.94786 27.7397C12.2759 27.7397 14.4159 26.9518 16.1217 25.6176C13.9369 25.5729 12.1013 24.1402 11.4745 22.1703C12.2401 22.2822 12.9296 22.2822 13.7175 22.0808C12.5926 21.8522 11.5814 21.2412 10.8559 20.3517C10.1303 19.4621 9.73514 18.3487 9.73744 17.2008V17.1381C10.3956 17.5097 11.1701 17.738 11.9804 17.7694C11.2992 17.3154 10.7406 16.7003 10.354 15.9787C9.9674 15.2571 9.76485 14.4512 9.7643 13.6326C9.7643 12.7058 10.0061 11.8597 10.4403 11.1254C11.689 12.6626 13.2471 13.9198 15.0135 14.8153C16.7798 15.7108 18.7148 16.2246 20.6928 16.3233C19.9899 12.9431 22.5149 10.2077 25.5503 10.2077C26.983 10.2077 28.2724 10.8076 29.1812 11.7746C30.305 11.5642 31.3795 11.1434 32.3375 10.5792C31.9659 11.7298 31.1869 12.7014 30.1527 13.3147C31.1556 13.2073 32.1226 12.9297 33.018 12.5402C32.342 13.5341 31.4959 14.4161 30.5243 15.119Z" fill="white"/>
</svg>
